<mxfile host="Electron" modified="2024-05-06T07:36:43.174Z" agent="Mozilla/5.0 (Windows NT 10.0; Win64; x64) AppleWebKit/537.36 (KHTML, like Gecko) draw.io/21.7.5 Chrome/114.0.5735.289 Electron/25.8.1 Safari/537.36" etag="vi6uv063gZk8spGwjega" version="21.7.5" type="device">
  <diagram name="Seite-1" id="CrJlkFP8rlwsbW62yLzP">
    <mxGraphModel dx="1843" dy="1093" grid="1" gridSize="10" guides="1" tooltips="1" connect="1" arrows="1" fold="1" page="1" pageScale="1" pageWidth="827" pageHeight="1169" math="0" shadow="0">
      <root>
        <mxCell id="0" />
        <mxCell id="1" parent="0" />
        <mxCell id="gn1-rQoxH2bnCppOuASM-3" value="" style="ellipse;html=1;shape=endState;fillColor=#000000;strokeColor=#ff0000;" vertex="1" parent="1">
          <mxGeometry x="545" y="1088.5" width="50" height="50" as="geometry" />
        </mxCell>
        <mxCell id="gn1-rQoxH2bnCppOuASM-5" value="" style="endArrow=classic;html=1;rounded=0;exitX=0.5;exitY=1;exitDx=0;exitDy=0;entryX=0.5;entryY=0;entryDx=0;entryDy=0;" edge="1" parent="1" source="gn1-rQoxH2bnCppOuASM-60" target="gn1-rQoxH2bnCppOuASM-6">
          <mxGeometry width="50" height="50" relative="1" as="geometry">
            <mxPoint x="421" y="230" as="sourcePoint" />
            <mxPoint x="405" y="240" as="targetPoint" />
          </mxGeometry>
        </mxCell>
        <mxCell id="gn1-rQoxH2bnCppOuASM-6" value="API get Data" style="rounded=1;whiteSpace=wrap;html=1;" vertex="1" parent="1">
          <mxGeometry x="359" y="270" width="96" height="50" as="geometry" />
        </mxCell>
        <mxCell id="gn1-rQoxH2bnCppOuASM-9" value="" style="endArrow=classic;html=1;rounded=0;exitX=0.5;exitY=1;exitDx=0;exitDy=0;" edge="1" parent="1" source="gn1-rQoxH2bnCppOuASM-6">
          <mxGeometry width="50" height="50" relative="1" as="geometry">
            <mxPoint x="430" y="470" as="sourcePoint" />
            <mxPoint x="407" y="370" as="targetPoint" />
          </mxGeometry>
        </mxCell>
        <mxCell id="gn1-rQoxH2bnCppOuASM-11" value="" style="endArrow=classic;html=1;rounded=0;exitX=1;exitY=0.5;exitDx=0;exitDy=0;" edge="1" parent="1" source="gn1-rQoxH2bnCppOuASM-10">
          <mxGeometry width="50" height="50" relative="1" as="geometry">
            <mxPoint x="430" y="500" as="sourcePoint" />
            <mxPoint x="530" y="405" as="targetPoint" />
          </mxGeometry>
        </mxCell>
        <mxCell id="gn1-rQoxH2bnCppOuASM-15" value="no" style="edgeLabel;html=1;align=center;verticalAlign=middle;resizable=0;points=[];" vertex="1" connectable="0" parent="gn1-rQoxH2bnCppOuASM-11">
          <mxGeometry x="-0.2543" y="5" relative="1" as="geometry">
            <mxPoint as="offset" />
          </mxGeometry>
        </mxCell>
        <mxCell id="gn1-rQoxH2bnCppOuASM-13" value="" style="endArrow=classic;html=1;rounded=0;exitX=1;exitY=0.5;exitDx=0;exitDy=0;" edge="1" parent="1">
          <mxGeometry width="50" height="50" relative="1" as="geometry">
            <mxPoint x="367.8799999999999" y="404.6" as="sourcePoint" />
            <mxPoint x="290" y="405" as="targetPoint" />
          </mxGeometry>
        </mxCell>
        <mxCell id="gn1-rQoxH2bnCppOuASM-17" value="yes" style="edgeLabel;html=1;align=center;verticalAlign=middle;resizable=0;points=[];" vertex="1" connectable="0" parent="gn1-rQoxH2bnCppOuASM-13">
          <mxGeometry x="-0.1726" y="-4" relative="1" as="geometry">
            <mxPoint as="offset" />
          </mxGeometry>
        </mxCell>
        <mxCell id="gn1-rQoxH2bnCppOuASM-14" value="" style="endArrow=classic;html=1;rounded=0;exitX=1;exitY=0.5;exitDx=0;exitDy=0;" edge="1" parent="1" target="gn1-rQoxH2bnCppOuASM-10">
          <mxGeometry width="50" height="50" relative="1" as="geometry">
            <mxPoint x="381.75" y="394.57" as="sourcePoint" />
            <mxPoint x="289.75" y="394.57" as="targetPoint" />
          </mxGeometry>
        </mxCell>
        <mxCell id="gn1-rQoxH2bnCppOuASM-10" value="success?" style="rhombus;whiteSpace=wrap;html=1;" vertex="1" parent="1">
          <mxGeometry x="367.88" y="370" width="78.25" height="70" as="geometry" />
        </mxCell>
        <mxCell id="gn1-rQoxH2bnCppOuASM-18" value="log the error" style="rounded=1;whiteSpace=wrap;html=1;" vertex="1" parent="1">
          <mxGeometry x="530" y="380" width="80" height="50" as="geometry" />
        </mxCell>
        <mxCell id="gn1-rQoxH2bnCppOuASM-23" style="edgeStyle=orthogonalEdgeStyle;rounded=0;orthogonalLoop=1;jettySize=auto;html=1;exitX=0.5;exitY=1;exitDx=0;exitDy=0;entryX=0.5;entryY=0;entryDx=0;entryDy=0;" edge="1" parent="1" source="gn1-rQoxH2bnCppOuASM-20" target="gn1-rQoxH2bnCppOuASM-22">
          <mxGeometry relative="1" as="geometry" />
        </mxCell>
        <mxCell id="gn1-rQoxH2bnCppOuASM-20" value="log response" style="rounded=1;whiteSpace=wrap;html=1;" vertex="1" parent="1">
          <mxGeometry x="210" y="380" width="80" height="50" as="geometry" />
        </mxCell>
        <mxCell id="gn1-rQoxH2bnCppOuASM-22" value="store data" style="rounded=1;whiteSpace=wrap;html=1;" vertex="1" parent="1">
          <mxGeometry x="210" y="480" width="80" height="50" as="geometry" />
        </mxCell>
        <mxCell id="gn1-rQoxH2bnCppOuASM-44" style="edgeStyle=orthogonalEdgeStyle;rounded=0;orthogonalLoop=1;jettySize=auto;html=1;exitX=0.5;exitY=0;exitDx=0;exitDy=0;entryX=1;entryY=0.5;entryDx=0;entryDy=0;" edge="1" parent="1" source="gn1-rQoxH2bnCppOuASM-25" target="gn1-rQoxH2bnCppOuASM-6">
          <mxGeometry relative="1" as="geometry" />
        </mxCell>
        <mxCell id="gn1-rQoxH2bnCppOuASM-25" value="print message" style="rounded=1;whiteSpace=wrap;html=1;" vertex="1" parent="1">
          <mxGeometry x="640" y="380" width="80" height="50" as="geometry" />
        </mxCell>
        <mxCell id="gn1-rQoxH2bnCppOuASM-26" value="" style="endArrow=classic;html=1;rounded=0;exitX=1;exitY=0.5;exitDx=0;exitDy=0;entryX=0;entryY=0.5;entryDx=0;entryDy=0;" edge="1" parent="1" source="gn1-rQoxH2bnCppOuASM-18" target="gn1-rQoxH2bnCppOuASM-25">
          <mxGeometry width="50" height="50" relative="1" as="geometry">
            <mxPoint x="650" y="550" as="sourcePoint" />
            <mxPoint x="700" y="500" as="targetPoint" />
          </mxGeometry>
        </mxCell>
        <mxCell id="gn1-rQoxH2bnCppOuASM-30" value="get email credentials" style="rounded=1;whiteSpace=wrap;html=1;" vertex="1" parent="1">
          <mxGeometry x="210" y="585" width="80" height="50" as="geometry" />
        </mxCell>
        <mxCell id="gn1-rQoxH2bnCppOuASM-31" value="" style="endArrow=classic;html=1;rounded=0;exitX=0.5;exitY=1;exitDx=0;exitDy=0;entryX=0.5;entryY=0;entryDx=0;entryDy=0;" edge="1" parent="1" source="gn1-rQoxH2bnCppOuASM-22" target="gn1-rQoxH2bnCppOuASM-30">
          <mxGeometry width="50" height="50" relative="1" as="geometry">
            <mxPoint x="370" y="550" as="sourcePoint" />
            <mxPoint x="420" y="500" as="targetPoint" />
          </mxGeometry>
        </mxCell>
        <mxCell id="gn1-rQoxH2bnCppOuASM-32" value="email credentials exist?" style="rhombus;whiteSpace=wrap;html=1;" vertex="1" parent="1">
          <mxGeometry x="205" y="690" width="90" height="90" as="geometry" />
        </mxCell>
        <mxCell id="gn1-rQoxH2bnCppOuASM-33" value="" style="endArrow=classic;html=1;rounded=0;exitX=0.5;exitY=1;exitDx=0;exitDy=0;entryX=0.5;entryY=0;entryDx=0;entryDy=0;" edge="1" parent="1" source="gn1-rQoxH2bnCppOuASM-30" target="gn1-rQoxH2bnCppOuASM-32">
          <mxGeometry width="50" height="50" relative="1" as="geometry">
            <mxPoint x="370" y="660" as="sourcePoint" />
            <mxPoint x="420" y="610" as="targetPoint" />
          </mxGeometry>
        </mxCell>
        <mxCell id="gn1-rQoxH2bnCppOuASM-34" value="" style="endArrow=classic;html=1;rounded=0;exitX=1;exitY=0.5;exitDx=0;exitDy=0;" edge="1" parent="1" source="gn1-rQoxH2bnCppOuASM-32">
          <mxGeometry width="50" height="50" relative="1" as="geometry">
            <mxPoint x="330" y="650" as="sourcePoint" />
            <mxPoint x="390" y="735" as="targetPoint" />
          </mxGeometry>
        </mxCell>
        <mxCell id="gn1-rQoxH2bnCppOuASM-35" value="yes" style="text;html=1;align=center;verticalAlign=middle;resizable=0;points=[];autosize=1;strokeColor=none;fillColor=none;" vertex="1" parent="1">
          <mxGeometry x="330" y="708" width="40" height="30" as="geometry" />
        </mxCell>
        <mxCell id="gn1-rQoxH2bnCppOuASM-37" value="prepare email" style="rounded=1;whiteSpace=wrap;html=1;" vertex="1" parent="1">
          <mxGeometry x="390" y="710" width="80" height="50" as="geometry" />
        </mxCell>
        <mxCell id="gn1-rQoxH2bnCppOuASM-43" style="edgeStyle=orthogonalEdgeStyle;rounded=0;orthogonalLoop=1;jettySize=auto;html=1;exitX=0.5;exitY=0;exitDx=0;exitDy=0;entryX=0;entryY=0.5;entryDx=0;entryDy=0;" edge="1" parent="1" source="gn1-rQoxH2bnCppOuASM-39" target="gn1-rQoxH2bnCppOuASM-30">
          <mxGeometry relative="1" as="geometry" />
        </mxCell>
        <mxCell id="gn1-rQoxH2bnCppOuASM-39" value="log error" style="rounded=1;whiteSpace=wrap;html=1;" vertex="1" parent="1">
          <mxGeometry x="70" y="710" width="80" height="50" as="geometry" />
        </mxCell>
        <mxCell id="gn1-rQoxH2bnCppOuASM-40" value="" style="endArrow=classic;html=1;rounded=0;entryX=1;entryY=0.5;entryDx=0;entryDy=0;exitX=0;exitY=0.5;exitDx=0;exitDy=0;" edge="1" parent="1" source="gn1-rQoxH2bnCppOuASM-32" target="gn1-rQoxH2bnCppOuASM-39">
          <mxGeometry width="50" height="50" relative="1" as="geometry">
            <mxPoint x="180" y="690" as="sourcePoint" />
            <mxPoint x="230" y="640" as="targetPoint" />
          </mxGeometry>
        </mxCell>
        <mxCell id="gn1-rQoxH2bnCppOuASM-42" value="no" style="edgeLabel;html=1;align=center;verticalAlign=middle;resizable=0;points=[];" vertex="1" connectable="0" parent="gn1-rQoxH2bnCppOuASM-40">
          <mxGeometry x="0.0303" y="-6" relative="1" as="geometry">
            <mxPoint as="offset" />
          </mxGeometry>
        </mxCell>
        <mxCell id="gn1-rQoxH2bnCppOuASM-46" value="" style="endArrow=classic;html=1;rounded=0;exitX=0.5;exitY=1;exitDx=0;exitDy=0;" edge="1" parent="1" source="gn1-rQoxH2bnCppOuASM-47">
          <mxGeometry width="50" height="50" relative="1" as="geometry">
            <mxPoint x="420" y="940" as="sourcePoint" />
            <mxPoint x="430" y="820" as="targetPoint" />
          </mxGeometry>
        </mxCell>
        <mxCell id="gn1-rQoxH2bnCppOuASM-48" value="" style="endArrow=classic;html=1;rounded=0;exitX=0.5;exitY=1;exitDx=0;exitDy=0;" edge="1" parent="1" source="gn1-rQoxH2bnCppOuASM-37" target="gn1-rQoxH2bnCppOuASM-47">
          <mxGeometry width="50" height="50" relative="1" as="geometry">
            <mxPoint x="430" y="760" as="sourcePoint" />
            <mxPoint x="430" y="820" as="targetPoint" />
          </mxGeometry>
        </mxCell>
        <mxCell id="gn1-rQoxH2bnCppOuASM-55" style="edgeStyle=orthogonalEdgeStyle;rounded=0;orthogonalLoop=1;jettySize=auto;html=1;exitX=0.5;exitY=1;exitDx=0;exitDy=0;entryX=0.5;entryY=0;entryDx=0;entryDy=0;" edge="1" parent="1" source="gn1-rQoxH2bnCppOuASM-47" target="gn1-rQoxH2bnCppOuASM-50">
          <mxGeometry relative="1" as="geometry" />
        </mxCell>
        <mxCell id="gn1-rQoxH2bnCppOuASM-47" value="send email with data" style="rounded=1;whiteSpace=wrap;html=1;" vertex="1" parent="1">
          <mxGeometry x="390" y="820" width="80" height="50" as="geometry" />
        </mxCell>
        <mxCell id="gn1-rQoxH2bnCppOuASM-54" style="edgeStyle=orthogonalEdgeStyle;rounded=0;orthogonalLoop=1;jettySize=auto;html=1;exitX=1;exitY=0.5;exitDx=0;exitDy=0;entryX=1;entryY=0.5;entryDx=0;entryDy=0;" edge="1" parent="1" source="gn1-rQoxH2bnCppOuASM-50" target="gn1-rQoxH2bnCppOuASM-37">
          <mxGeometry relative="1" as="geometry">
            <mxPoint x="490" y="730" as="targetPoint" />
          </mxGeometry>
        </mxCell>
        <mxCell id="gn1-rQoxH2bnCppOuASM-59" value="no" style="edgeLabel;html=1;align=center;verticalAlign=middle;resizable=0;points=[];" vertex="1" connectable="0" parent="gn1-rQoxH2bnCppOuASM-54">
          <mxGeometry x="-0.0679" y="-3" relative="1" as="geometry">
            <mxPoint x="1" as="offset" />
          </mxGeometry>
        </mxCell>
        <mxCell id="gn1-rQoxH2bnCppOuASM-76" style="edgeStyle=orthogonalEdgeStyle;rounded=0;orthogonalLoop=1;jettySize=auto;html=1;exitX=0;exitY=0.5;exitDx=0;exitDy=0;entryX=0;entryY=0.5;entryDx=0;entryDy=0;" edge="1" parent="1" source="gn1-rQoxH2bnCppOuASM-50" target="gn1-rQoxH2bnCppOuASM-6">
          <mxGeometry relative="1" as="geometry">
            <Array as="points">
              <mxPoint x="50" y="965" />
              <mxPoint x="50" y="295" />
            </Array>
          </mxGeometry>
        </mxCell>
        <mxCell id="gn1-rQoxH2bnCppOuASM-77" style="edgeStyle=orthogonalEdgeStyle;rounded=0;orthogonalLoop=1;jettySize=auto;html=1;exitX=0.5;exitY=1;exitDx=0;exitDy=0;entryX=0.506;entryY=0.069;entryDx=0;entryDy=0;entryPerimeter=0;" edge="1" parent="1" source="gn1-rQoxH2bnCppOuASM-50" target="gn1-rQoxH2bnCppOuASM-69">
          <mxGeometry relative="1" as="geometry" />
        </mxCell>
        <mxCell id="gn1-rQoxH2bnCppOuASM-50" value="send succcessful?" style="rhombus;whiteSpace=wrap;html=1;" vertex="1" parent="1">
          <mxGeometry x="385" y="920" width="90" height="90" as="geometry" />
        </mxCell>
        <mxCell id="gn1-rQoxH2bnCppOuASM-60" value="" style="ellipse;whiteSpace=wrap;html=1;aspect=fixed;fillColor=#0F0F0F;" vertex="1" parent="1">
          <mxGeometry x="383.5" y="173" width="47" height="47" as="geometry" />
        </mxCell>
        <mxCell id="gn1-rQoxH2bnCppOuASM-68" style="edgeStyle=orthogonalEdgeStyle;rounded=0;orthogonalLoop=1;jettySize=auto;html=1;exitX=1;exitY=0.5;exitDx=0;exitDy=0;entryX=0.166;entryY=0.526;entryDx=0;entryDy=0;entryPerimeter=0;" edge="1" parent="1" source="gn1-rQoxH2bnCppOuASM-69" target="gn1-rQoxH2bnCppOuASM-3">
          <mxGeometry relative="1" as="geometry">
            <mxPoint x="520" y="1095" as="sourcePoint" />
          </mxGeometry>
        </mxCell>
        <mxCell id="gn1-rQoxH2bnCppOuASM-73" value="yes" style="edgeLabel;html=1;align=center;verticalAlign=middle;resizable=0;points=[];" vertex="1" connectable="0" parent="gn1-rQoxH2bnCppOuASM-68">
          <mxGeometry x="-0.2803" y="3" relative="1" as="geometry">
            <mxPoint x="-4" as="offset" />
          </mxGeometry>
        </mxCell>
        <mxCell id="gn1-rQoxH2bnCppOuASM-79" style="edgeStyle=orthogonalEdgeStyle;rounded=0;orthogonalLoop=1;jettySize=auto;html=1;exitX=0;exitY=0.5;exitDx=0;exitDy=0;entryX=0;entryY=0.5;entryDx=0;entryDy=0;" edge="1" parent="1" source="gn1-rQoxH2bnCppOuASM-69" target="gn1-rQoxH2bnCppOuASM-6">
          <mxGeometry relative="1" as="geometry">
            <Array as="points">
              <mxPoint x="60" y="1114" />
              <mxPoint x="60" y="295" />
            </Array>
          </mxGeometry>
        </mxCell>
        <mxCell id="gn1-rQoxH2bnCppOuASM-69" value="programm closed?" style="rhombus;whiteSpace=wrap;html=1;" vertex="1" parent="1">
          <mxGeometry x="380.88" y="1068.5" width="98.25" height="90" as="geometry" />
        </mxCell>
        <mxCell id="gn1-rQoxH2bnCppOuASM-80" value="no" style="text;html=1;align=center;verticalAlign=middle;resizable=0;points=[];autosize=1;strokeColor=none;fillColor=none;" vertex="1" parent="1">
          <mxGeometry x="220" y="1088" width="40" height="30" as="geometry" />
        </mxCell>
      </root>
    </mxGraphModel>
  </diagram>
</mxfile>
